<?xml version="1.0" encoding="UTF-8" standalone="no"?><!DOCTYPE svg PUBLIC "-//W3C//DTD SVG 1.1//EN" "http://www.w3.org/Graphics/SVG/1.1/DTD/svg11.dtd"><svg width="100%" height="100%" viewBox="0 0 200 180" version="1.1" xmlns="http://www.w3.org/2000/svg" xmlns:xlink="http://www.w3.org/1999/xlink" xml:space="preserve" xmlns:serif="http://www.serif.com/" style="fill-rule:evenodd;clip-rule:evenodd;stroke-linejoin:round;stroke-miterlimit:1.41421;"><path d="M100,53.477c18.947,-39.697 56.842,-39.697 75.789,-25.021c18.948,14.677 18.948,44.03 0,73.383c-13.263,22.014 -47.368,44.029 -75.789,58.705c-28.421,-14.676 -62.527,-36.691 -75.79,-58.705c-18.947,-29.353 -18.947,-58.706 0,-73.383c18.948,-14.676 56.842,-14.676 75.79,25.021Zm0,10.987c16.842,-42.215 50.526,-42.215 67.368,-29.169c16.843,13.045 16.843,39.137 0,65.228c-11.789,19.569 -42.105,39.137 -67.368,52.183c-25.263,-13.046 -55.579,-32.614 -67.369,-52.183c-16.842,-26.091 -16.842,-52.183 0,-65.228c16.843,-13.046 50.527,-13.046 67.369,29.169Z"/></svg>